<svg width="26" height="23" viewBox="0 0 26 23" fill="none" xmlns="http://www.w3.org/2000/svg">
<path d="M4.00003 9C4.00003 8.07132 4.00003 7.60699 4.03855 7.21586C4.41264 3.41765 7.41768 0.412614 11.2159 0.0385222C11.607 0 12.0714 0 13 0C13.9287 0 14.393 0 14.7842 0.0385222C18.5824 0.412614 21.5874 3.41765 21.9615 7.21586C22 7.60699 22 8.07132 22 9V11.7464C22 12.7761 22 13.291 22.064 13.7937C22.1609 14.5552 22.3668 15.2987 22.6755 16.0014C22.8793 16.4655 23.1442 16.907 23.674 17.7899L24.6826 19.471C25.4884 20.8139 25.8913 21.4854 25.604 21.9927C25.3168 22.5 24.5338 22.5 22.9676 22.5H3.03247C1.46637 22.5 0.683326 22.5 0.396096 21.9927C0.108866 21.4854 0.511734 20.8139 1.31747 19.471L2.32613 17.7899C2.85589 16.9069 3.12077 16.4655 3.3246 16.0014C3.63327 15.2987 3.8392 14.5552 3.93607 13.7938C4.00003 13.291 4.00003 12.7762 4.00003 11.7465V9Z" fill="#FFE400"/>
</svg>
